<?xml version="1.0" encoding="iso-8859-1"?>
<!-- Generator: Adobe Illustrator 21.0.0, SVG Export Plug-In . SVG Version: 6.00 Build 0)  -->
<svg xmlns="http://www.w3.org/2000/svg" xmlns:xlink="http://www.w3.org/1999/xlink" version="1.1" id="Capa_1" x="0px" y="0px" viewBox="0 0 512 512" style="enable-background:new 0 0 512 512;" xml:space="preserve" width="512" height="512">
<g>
	<circle style="fill:#FFAA20;" cx="256" cy="256" r="256"/>
	<path style="fill:#FF8900;" d="M287.349,510.087c108.178-13.21,195.499-93.893,218.621-198.687L323.213,128.643L145.979,337.917   c0,0,34.368,34.377,34.553,34.563v30.79L287.349,510.087z"/>
	<g>
		<path style="fill:#009100;" d="M220.715,227.394h-81.304c-6.792-6.694-11.94-14.033-15.366-21.927    c-3.81-8.769-5.672-18.683-5.538-29.454c0.371-31.329,17.35-60.376,18.074-61.593l3.371-5.69l6.457,1.424    c0.761,0.17,18.792,4.236,37.481,14.752c18.385,10.34,31.025,23.229,37.567,38.303c0.7,1.619,1.339,3.28,1.899,4.942    c0.164,0.481,0.316,0.943,0.45,1.4C230.093,189.706,225.961,211.456,220.715,227.394z"/>
		<path style="fill:#008300;" d="M220.715,227.394h-29.132l-51.631-118.664l6.457,1.424c0.761,0.17,18.792,4.236,37.481,14.752    c18.385,10.34,31.025,23.229,37.567,38.303c0.7,1.619,1.339,3.28,1.899,4.942c0.164,0.481,0.316,0.943,0.45,1.4    C230.093,189.706,225.961,211.456,220.715,227.394z"/>
		<path style="fill:#FF633D;" d="M281.249,157.324c0,21.245-17.283,38.528-38.528,38.528c-21.239,0-38.522-17.283-38.522-38.528    c0-21.245,17.283-38.528,38.522-38.528C263.966,118.796,281.249,136.079,281.249,157.324z"/>
		<path style="fill:#E70021;" d="M281.249,157.324c0,21.245-17.283,38.528-38.528,38.528v-77.056    C263.966,118.796,281.249,136.079,281.249,157.324z"/>
		<path style="fill:#FF633D;" d="M334.225,155.882c0,21.677-17.636,39.307-39.313,39.307s-39.313-17.63-39.313-39.307    s17.636-39.313,39.313-39.313S334.225,134.205,334.225,155.882z"/>
		<path style="fill:#E70021;" d="M334.225,155.882c0,21.677-17.636,39.307-39.313,39.307v-78.62    C316.589,116.569,334.225,134.205,334.225,155.882z"/>
		<path style="fill:#6ECD24;" d="M390.623,220.407c0.388-1.945,0.629-3.919,0.705-5.909c0.724-18.683-12.336-34.761-30.094-38.4    c-5.282-13.881-18.561-23.752-33.812-24.349c-0.779-0.03-1.558-0.037-2.331-0.018c-14.326,0.341-27.239,8.94-33.258,21.683    c-9.372,1.199-18.117,5.915-24.245,13.255l-0.335,0.408c-5.167,6.359-8.07,14.064-8.392,22.28    c-0.144,3.773,0.271,7.47,1.219,11.052H390.623z"/>
		<path style="fill:#66BD21;" d="M390.623,220.407c0.388-1.945,0.629-3.919,0.705-5.909c0.724-18.683-12.336-34.761-30.094-38.4    c-5.282-13.881-18.561-23.752-33.812-24.349c-0.779-0.03-1.558-0.037-2.331-0.018v68.676H390.623z"/>
		<path style="fill:#6ECD24;" d="M331.511,226.786c0.388-1.945,0.629-3.919,0.705-5.909c0.724-18.683-12.336-34.761-30.094-38.4    c-5.282-13.881-18.561-23.752-33.812-24.349c-0.779-0.03-1.558-0.037-2.331-0.018c-14.326,0.341-27.239,8.94-33.258,21.683    c-9.372,1.199-18.117,5.915-24.245,13.255l-0.335,0.408c-5.167,6.36-8.07,14.064-8.392,22.28    c-0.144,3.773,0.271,7.47,1.219,11.051H331.511z"/>
		<path style="fill:#66BD21;" d="M331.511,226.786c0.388-1.945,0.629-3.919,0.705-5.909c0.724-18.683-12.336-34.761-30.094-38.4    c-5.282-13.881-18.561-23.752-33.812-24.349c-0.779-0.03-1.558-0.037-2.331-0.018v68.676H331.511z"/>
		<path style="fill:#FF633D;" d="M411.792,218.503v9.128c0,9.707-0.895,19.328-2.666,28.761c-1.156,6.183-2.684,12.275-4.576,18.257    c-3.931,12.451-9.439,24.41-16.437,35.583c-15.062,24.044-36.38,43.531-61.635,56.365l-1.947,0.992H187.47l-1.947-0.992    c-25.255-12.835-46.573-32.321-61.635-56.365c-6.998-11.173-12.506-23.132-16.437-35.583c-1.893-5.982-3.42-12.074-4.576-18.257    c-1.771-9.433-2.666-19.054-2.666-28.761v-9.128H411.792z"/>
		<path style="fill:#FFC473;" d="M409.127,256.393c-1.156,6.183-2.684,12.275-4.576,18.257H107.45    c-1.893-5.982-3.42-12.074-4.576-18.257H409.127z"/>
		<rect x="180.532" y="363.968" style="fill:#FFC473;" width="150.936" height="39.301"/>
		<path style="fill:#E70021;" d="M411.792,218.503v9.128c0,9.707-0.895,19.328-2.666,28.761c-1.156,6.183-2.684,12.275-4.576,18.257    c-3.931,12.451-9.439,24.41-16.437,35.583c-15.062,24.044-36.38,43.531-61.635,56.365l-1.947,0.992h-68.932V218.503H411.792z"/>
		<rect x="255.598" y="363.968" style="fill:#FFB74F;" width="75.87" height="39.301"/>
		<path style="fill:#FFB74F;" d="M409.127,256.393c-1.156,6.183-2.684,12.275-4.576,18.257H255.598v-18.257H409.127z"/>
	</g>
</g>















</svg>
